<svg width="137" height="50" viewBox="0 0 137 50" fill="none" xmlns="http://www.w3.org/2000/svg">
<rect x="0.890137" y="0.5" width="135.137" height="49" rx="15.5" fill="#FCDDEC"/>
<path d="M16.9821 38.1252C16.7741 37.8453 16.6401 37.4307 16.6401 36.8793V13.1217C16.6401 12.5693 16.7739 12.1542 16.9818 11.8744L30.1078 24.9994L16.9821 38.1252Z" fill="#18202F" stroke="#FCDDEC" stroke-width="0.5"/>
<path d="M40.2616 26.195L34.9994 29.1849L30.8149 24.9994L34.9994 20.8149L40.2616 23.8048L40.2619 23.8049C40.8967 24.1644 41.2115 24.5992 41.2738 25.0004C41.2115 25.3995 40.8967 25.8344 40.2617 26.195L40.2616 26.195Z" fill="#18202F" stroke="#FCDDEC" stroke-width="0.5"/>
<path d="M17.9364 38.59C17.7198 38.5907 17.5268 38.5434 17.3603 38.4543L30.4614 25.3531L34.5486 29.4413L19.0328 38.258L19.0328 38.258C18.6251 38.4898 18.2526 38.59 17.9371 38.59L17.9364 38.59Z" fill="#18202F" stroke="#FCDDEC" stroke-width="0.5"/>
<path d="M30.4613 24.6459L17.3595 11.545C17.5258 11.4563 17.7183 11.4089 17.9348 11.4089C18.251 11.4089 18.6234 11.51 19.0325 11.743L19.0328 11.7432L34.5485 20.5588L30.4613 24.6459Z" fill="#18202F" stroke="#FCDDEC" stroke-width="0.5"/>
<path fill-rule="evenodd" clip-rule="evenodd" d="M18.0372 38.9967C18.379 38.9771 18.7578 38.8596 19.1563 38.6342L34.9562 29.6565L19.1563 38.6342C18.7578 38.8606 18.379 38.9782 18.0372 38.9967Z" fill="black"/>
<path fill-rule="evenodd" clip-rule="evenodd" d="M34.9563 29.6564L35.0586 29.5977L34.9563 29.6564Z" fill="#18202F"/>
<path fill-rule="evenodd" clip-rule="evenodd" d="M16.8941 38.5677C16.5773 38.2324 16.3901 37.7121 16.3901 37.0382V37.0371C16.3901 37.7121 16.5773 38.2324 16.8941 38.5666V38.5677Z" fill="black"/>
<path fill-rule="evenodd" clip-rule="evenodd" d="M16.8942 38.5677V38.5666L16.9748 38.4861L16.8942 38.5677Z" fill="#18202F"/>
<path fill-rule="evenodd" clip-rule="evenodd" d="M41.4008 25.5621C41.4847 25.3792 41.526 25.1898 41.526 25.0016C41.526 25.0005 41.5271 25.0005 41.5271 25.0005C41.5271 25.1898 41.4847 25.3781 41.4008 25.5621Z" fill="black"/>
<path d="M41.5271 24.9994H41.526C41.526 24.43 41.1461 23.8607 40.3851 23.4285L35.0586 20.4022V20.4011L40.3851 23.4285C41.1461 23.8607 41.5271 24.43 41.5271 24.9994Z" fill="#404040"/>
<path d="M16.3951 12.7679C16.4582 11.6499 17.0657 11.0044 17.9257 11C17.5534 11.0022 17.229 11.1241 16.9742 11.3538L16.971 11.3571C16.9448 11.381 16.9187 11.406 16.8937 11.4322C16.6085 11.7348 16.4277 12.1877 16.3951 12.7679Z" fill="#404040"/>
<path d="M54.9334 19C57.3396 19 58.7107 17.4961 58.7146 14.9805C58.7146 12.4922 57.3631 11 55.074 11H52.5896V19H54.9334ZM53.3201 18.3437V11.6562H55.031C56.9724 11.6562 58.0037 12.9102 58.0076 14.9805C58.0076 17.0703 56.9529 18.3437 54.8904 18.3437H53.3201ZM62.3726 19.125C63.9273 19.125 65.0133 17.8555 65.0133 16.0273C65.0133 14.1875 63.9273 12.918 62.3726 12.918C60.818 12.918 59.732 14.1875 59.732 16.0273C59.732 17.8555 60.818 19.125 62.3726 19.125ZM62.3726 18.4883C61.1265 18.4883 60.4312 17.3711 60.4312 16.0273C60.4312 14.6836 61.1265 13.5508 62.3726 13.5508C63.6187 13.5508 64.314 14.6836 64.314 16.0273C64.314 17.3711 63.6187 18.4883 62.3726 18.4883ZM67.3676 19H68.0863L69.5082 14.082H69.5824L71.0043 19H71.723L73.5355 13H72.8012L71.3793 17.9375H71.3246L69.9183 13H69.1801L67.7621 17.9492H67.7113L66.2894 13H65.5551L67.3676 19ZM75.2824 15.25C75.2824 14.2031 75.9699 13.5586 76.9152 13.5586C77.8371 13.5586 78.4308 14.1758 78.4308 15.1562V19H79.1262V15.1133C79.1262 13.6914 78.3019 12.9219 77.091 12.9219C76.2121 12.9219 75.6066 13.3281 75.3254 13.9414H75.2629V13H74.5871V19H75.2824V15.25ZM81.3525 11H80.6572V19H81.3525V11ZM85.2244 19.125C86.7791 19.125 87.865 17.8555 87.865 16.0273C87.865 14.1875 86.7791 12.918 85.2244 12.918C83.6697 12.918 82.5838 14.1875 82.5838 16.0273C82.5838 17.8555 83.6697 19.125 85.2244 19.125ZM85.2244 18.4883C83.9783 18.4883 83.283 17.3711 83.283 16.0273C83.283 14.6836 83.9783 13.5508 85.2244 13.5508C86.4705 13.5508 87.1658 14.6836 87.1658 16.0273C87.1658 17.3711 86.4705 18.4883 85.2244 18.4883ZM90.7672 19.1367C91.7672 19.1367 92.3765 18.582 92.6265 18.0508H92.6695V19H93.3648V14.9258C93.3648 13.3164 92.1539 12.918 91.2359 12.918C90.318 12.918 89.3726 13.2812 88.9664 14.2617L89.6265 14.5C89.8453 13.9844 90.3883 13.543 91.2555 13.543C92.1656 13.543 92.6695 14.043 92.6695 14.8633V15.0039C92.6695 15.457 92.107 15.4648 91.0992 15.5898C89.7437 15.7578 88.7945 16.1367 88.7945 17.3242C88.7945 18.4805 89.6773 19.1367 90.7672 19.1367ZM90.8609 18.5C90.0758 18.5 89.4898 18.082 89.4898 17.3555C89.4898 16.6289 90.0836 16.3242 91.0992 16.1992C91.5914 16.1406 92.4664 16.0312 92.6695 15.832V16.6992C92.6695 17.6836 91.9703 18.5 90.8609 18.5ZM97.0746 19.125C98.1644 19.125 98.6722 18.4336 98.9183 17.8867H99.0004V19H99.6801V11H98.9808V14.1445H98.9183C98.6801 13.6055 98.184 12.918 97.0863 12.918C95.6058 12.918 94.6058 14.168 94.6058 16.0156C94.6058 17.8789 95.6019 19.125 97.0746 19.125ZM97.1566 18.4883C95.9613 18.4883 95.3051 17.4023 95.3051 16.0039C95.3051 14.6211 95.9535 13.5508 97.1566 13.5508C98.3285 13.5508 98.9926 14.5664 98.9926 16.0039C98.9926 17.4531 98.3207 18.4883 97.1566 18.4883ZM106.486 19.125C108.041 19.125 109.127 17.8555 109.127 16.0273C109.127 14.1875 108.041 12.918 106.486 12.918C104.932 12.918 103.846 14.1875 103.846 16.0273C103.846 17.8555 104.932 19.125 106.486 19.125ZM106.486 18.4883C105.24 18.4883 104.545 17.3711 104.545 16.0273C104.545 14.6836 105.24 13.5508 106.486 13.5508C107.732 13.5508 108.428 14.6836 108.428 16.0273C108.428 17.3711 107.732 18.4883 106.486 18.4883ZM111.049 15.25C111.049 14.2031 111.736 13.5586 112.681 13.5586C113.603 13.5586 114.197 14.1758 114.197 15.1562V19H114.892V15.1133C114.892 13.6914 114.068 12.9219 112.857 12.9219C111.978 12.9219 111.373 13.3281 111.092 13.9414H111.029V13H110.353V19H111.049V15.25ZM53.7885 38L54.8567 34.9205H59.4021L60.4646 38H62.3283L58.1408 26.3636H56.1124L51.9249 38H53.7885ZM55.368 33.4432L57.0839 28.4773H57.1749L58.8908 33.4432H55.368ZM63.5723 41.2727H65.2712V36.642H65.3734C65.6803 37.1989 66.3053 38.1705 67.8962 38.1705C70.0098 38.1705 71.5439 36.4773 71.5439 33.6534C71.5439 30.8239 69.9871 29.1591 67.8791 29.1591C66.2598 29.1591 65.6746 30.1477 65.3734 30.6875H65.2314V29.2727H63.5723V41.2727ZM65.2371 33.6364C65.2371 31.8125 66.0325 30.6023 67.5155 30.6023C69.0553 30.6023 69.828 31.9034 69.828 33.6364C69.828 35.3864 69.0325 36.7216 67.5155 36.7216C66.0553 36.7216 65.2371 35.4716 65.2371 33.6364ZM73.1473 41.2727H74.8462V36.642H74.9484C75.2553 37.1989 75.8803 38.1705 77.4712 38.1705C79.5848 38.1705 81.1189 36.4773 81.1189 33.6534C81.1189 30.8239 79.5621 29.1591 77.4541 29.1591C75.8348 29.1591 75.2496 30.1477 74.9484 30.6875H74.8064V29.2727H73.1473V41.2727ZM74.8121 33.6364C74.8121 31.8125 75.6075 30.6023 77.0905 30.6023C78.6303 30.6023 79.403 31.9034 79.403 33.6364C79.403 35.3864 78.6075 36.7216 77.0905 36.7216C75.6303 36.7216 74.8121 35.4716 74.8121 33.6364ZM89.2621 31.4034C88.9098 30.0455 87.8473 29.1591 85.9609 29.1591C83.9893 29.1591 82.5916 30.1989 82.5916 31.7443C82.5916 32.983 83.3416 33.8068 84.978 34.1705L86.4553 34.4943C87.2962 34.6818 87.6882 35.0568 87.6882 35.6023C87.6882 36.2784 86.9666 36.8068 85.853 36.8068C84.8359 36.8068 84.1825 36.3693 83.978 35.5114L82.3359 35.7614C82.62 37.3068 83.9041 38.1761 85.8643 38.1761C87.9723 38.1761 89.4325 37.0568 89.4325 35.4773C89.4325 34.2443 88.6484 33.483 87.0462 33.1136L85.6598 32.7955C84.6996 32.5682 84.2848 32.2443 84.2905 31.6534C84.2848 30.983 85.0121 30.5057 85.978 30.5057C87.0348 30.5057 87.5234 31.0909 87.7223 31.6761L89.2621 31.4034ZM95.0743 29.2727H93.2845V27.1818H91.5857V29.2727H90.3072V30.6364H91.5857V35.7898C91.58 37.375 92.7902 38.142 94.1311 38.1136C94.6709 38.108 95.0345 38.0057 95.2334 37.9318L94.9266 36.5284C94.8129 36.5511 94.6027 36.6023 94.33 36.6023C93.7788 36.6023 93.2845 36.4205 93.2845 35.4375V30.6364H95.0743V29.2727ZM100.236 38.1761C102.696 38.1761 104.304 36.375 104.304 33.6761C104.304 30.9602 102.696 29.1591 100.236 29.1591C97.7757 29.1591 96.1678 30.9602 96.1678 33.6761C96.1678 36.375 97.7757 38.1761 100.236 38.1761ZM100.242 36.75C98.6337 36.75 97.8837 35.3466 97.8837 33.6705C97.8837 32 98.6337 30.5795 100.242 30.5795C101.838 30.5795 102.588 32 102.588 33.6705C102.588 35.3466 101.838 36.75 100.242 36.75ZM105.9 38H107.599V32.6705C107.599 31.5284 108.48 30.7045 109.685 30.7045C110.037 30.7045 110.435 30.767 110.571 30.8068V29.1818C110.4 29.1591 110.065 29.142 109.849 29.142C108.827 29.142 107.952 29.7216 107.633 30.6591H107.542V29.2727H105.9V38ZM115.19 38.1761C117.093 38.1761 118.44 37.2386 118.826 35.8182L117.218 35.5284C116.912 36.3523 116.173 36.7727 115.207 36.7727C113.752 36.7727 112.775 35.8295 112.73 34.1477H118.934V33.5455C118.934 30.392 117.048 29.1591 115.071 29.1591C112.639 29.1591 111.037 31.0114 111.037 33.6932C111.037 36.4034 112.616 38.1761 115.19 38.1761ZM112.735 32.875C112.804 31.6364 113.701 30.5625 115.082 30.5625C116.4 30.5625 117.264 31.5398 117.269 32.875H112.735Z" fill="#18202F"/>
<rect x="0.890137" y="0.5" width="135.137" height="49" rx="15.5" stroke="#FCDDEC"/>
</svg>
