<svg width="135" height="50" viewBox="0 0 135 50" fill="none" xmlns="http://www.w3.org/2000/svg">
<rect x="1.10986" y="0.5" width="132.78" height="49" rx="15.5" fill="#222E44"/>
<path d="M35.6366 25.8901C35.6503 24.8169 35.9354 23.7647 36.4653 22.8312C36.995 21.8977 37.7524 21.1134 38.6666 20.5513C38.0858 19.7218 37.3196 19.039 36.4286 18.5575C35.5378 18.0758 34.547 17.8086 33.5348 17.777C31.3755 17.5503 29.2823 19.069 28.182 19.069C27.0604 19.069 25.3663 17.7995 23.5421 17.8369C22.3621 17.8751 21.2122 18.2181 20.2043 18.8329C19.1963 19.4476 18.3648 20.3129 17.7908 21.3445C15.3039 25.6499 17.1589 31.9776 19.541 35.4578C20.7329 37.1619 22.1257 39.0656 23.9483 38.9981C25.7319 38.9241 26.3979 37.8608 28.5508 37.8608C30.6837 37.8608 31.3086 38.9981 33.1682 38.9551C35.082 38.9241 36.2877 37.2434 37.4378 35.5231C38.2941 34.3088 38.953 32.9668 39.3901 31.5467C38.2783 31.0764 37.3295 30.2893 36.662 29.2834C35.9945 28.2775 35.6379 27.0974 35.6366 25.8901Z" fill="white"/>
<path d="M32.1242 15.4883C33.1676 14.2356 33.6817 12.6255 33.5572 11C31.963 11.1674 30.4904 11.9294 29.4328 13.134C28.9158 13.7225 28.5198 14.407 28.2674 15.1487C28.0151 15.8902 27.9113 16.6743 27.9622 17.4561C28.7596 17.4643 29.5484 17.2914 30.2694 16.9507C30.9904 16.6098 31.6245 16.1097 32.1242 15.4883Z" fill="white"/>
<path d="M52.7964 19C55.2026 19 56.5737 17.4961 56.5776 14.9805C56.5776 12.4922 55.2261 11 52.937 11H50.4526V19H52.7964ZM51.1831 18.3437V11.6562H52.894C54.8354 11.6562 55.8667 12.9102 55.8706 14.9805C55.8706 17.0703 54.8159 18.3437 52.7534 18.3437H51.1831ZM60.2356 19.125C61.7903 19.125 62.8763 17.8555 62.8763 16.0273C62.8763 14.1875 61.7903 12.918 60.2356 12.918C58.681 12.918 57.595 14.1875 57.595 16.0273C57.595 17.8555 58.681 19.125 60.2356 19.125ZM60.2356 18.4883C58.9896 18.4883 58.2942 17.3711 58.2942 16.0273C58.2942 14.6836 58.9896 13.5508 60.2356 13.5508C61.4817 13.5508 62.1771 14.6836 62.1771 16.0273C62.1771 17.3711 61.4817 18.4883 60.2356 18.4883ZM65.2306 19H65.9493L67.3712 14.082H67.4454L68.8673 19H69.586L71.3985 13H70.6642L69.2423 17.9375H69.1876L67.7813 13H67.0431L65.6251 17.9492H65.5743L64.1524 13H63.4181L65.2306 19ZM73.1454 15.25C73.1454 14.2031 73.8329 13.5586 74.7782 13.5586C75.7001 13.5586 76.2938 14.1758 76.2938 15.1562V19H76.9892V15.1133C76.9892 13.6914 76.1649 12.9219 74.954 12.9219C74.0751 12.9219 73.4696 13.3281 73.1884 13.9414H73.1259V13H72.4501V19H73.1454V15.25ZM79.2155 11H78.5202V19H79.2155V11ZM83.0874 19.125C84.6421 19.125 85.728 17.8555 85.728 16.0273C85.728 14.1875 84.6421 12.918 83.0874 12.918C81.5327 12.918 80.4468 14.1875 80.4468 16.0273C80.4468 17.8555 81.5327 19.125 83.0874 19.125ZM83.0874 18.4883C81.8413 18.4883 81.146 17.3711 81.146 16.0273C81.146 14.6836 81.8413 13.5508 83.0874 13.5508C84.3335 13.5508 85.0288 14.6836 85.0288 16.0273C85.0288 17.3711 84.3335 18.4883 83.0874 18.4883ZM88.6302 19.1367C89.6302 19.1367 90.2396 18.582 90.4896 18.0508H90.5325V19H91.2278V14.9258C91.2278 13.3164 90.0169 12.918 89.0989 12.918C88.181 12.918 87.2356 13.2812 86.8294 14.2617L87.4896 14.5C87.7083 13.9844 88.2513 13.543 89.1185 13.543C90.0286 13.543 90.5325 14.043 90.5325 14.8633V15.0039C90.5325 15.457 89.97 15.4648 88.9622 15.5898C87.6067 15.7578 86.6575 16.1367 86.6575 17.3242C86.6575 18.4805 87.5403 19.1367 88.6302 19.1367ZM88.7239 18.5C87.9388 18.5 87.3528 18.082 87.3528 17.3555C87.3528 16.6289 87.9466 16.3242 88.9622 16.1992C89.4544 16.1406 90.3294 16.0312 90.5325 15.832V16.6992C90.5325 17.6836 89.8333 18.5 88.7239 18.5ZM94.9376 19.125C96.0274 19.125 96.5353 18.4336 96.7813 17.8867H96.8634V19H97.5431V11H96.8438V14.1445H96.7813C96.5431 13.6055 96.047 12.918 94.9493 12.918C93.4688 12.918 92.4688 14.168 92.4688 16.0156C92.4688 17.8789 93.4649 19.125 94.9376 19.125ZM95.0196 18.4883C93.8243 18.4883 93.1681 17.4023 93.1681 16.0039C93.1681 14.6211 93.8165 13.5508 95.0196 13.5508C96.1915 13.5508 96.8556 14.5664 96.8556 16.0039C96.8556 17.4531 96.1837 18.4883 95.0196 18.4883ZM104.349 19.125C105.904 19.125 106.99 17.8555 106.99 16.0273C106.99 14.1875 105.904 12.918 104.349 12.918C102.795 12.918 101.709 14.1875 101.709 16.0273C101.709 17.8555 102.795 19.125 104.349 19.125ZM104.349 18.4883C103.103 18.4883 102.408 17.3711 102.408 16.0273C102.408 14.6836 103.103 13.5508 104.349 13.5508C105.595 13.5508 106.291 14.6836 106.291 16.0273C106.291 17.3711 105.595 18.4883 104.349 18.4883ZM108.912 15.25C108.912 14.2031 109.599 13.5586 110.544 13.5586C111.466 13.5586 112.06 14.1758 112.06 15.1562V19H112.755V15.1133C112.755 13.6914 111.931 12.9219 110.72 12.9219C109.841 12.9219 109.236 13.3281 108.955 13.9414H108.892V13H108.216V19H108.912V15.25ZM51.6515 38L52.7197 34.9205H57.2651L58.3276 38H60.1913L56.0038 26.3636H53.9754L49.7879 38H51.6515ZM53.231 33.4432L54.947 28.4773H55.0379L56.7538 33.4432H53.231ZM61.4353 41.2727H63.1342V36.642H63.2364C63.5433 37.1989 64.1683 38.1705 65.7592 38.1705C67.8728 38.1705 69.4069 36.4773 69.4069 33.6534C69.4069 30.8239 67.8501 29.1591 65.7421 29.1591C64.1228 29.1591 63.5376 30.1477 63.2364 30.6875H63.0944V29.2727H61.4353V41.2727ZM63.1001 33.6364C63.1001 31.8125 63.8955 30.6023 65.3785 30.6023C66.9183 30.6023 67.691 31.9034 67.691 33.6364C67.691 35.3864 66.8955 36.7216 65.3785 36.7216C63.9183 36.7216 63.1001 35.4716 63.1001 33.6364ZM71.0103 41.2727H72.7092V36.642H72.8114C73.1183 37.1989 73.7433 38.1705 75.3342 38.1705C77.4478 38.1705 78.9819 36.4773 78.9819 33.6534C78.9819 30.8239 77.4251 29.1591 75.3171 29.1591C73.6978 29.1591 73.1126 30.1477 72.8114 30.6875H72.6694V29.2727H71.0103V41.2727ZM72.6751 33.6364C72.6751 31.8125 73.4705 30.6023 74.9535 30.6023C76.4933 30.6023 77.266 31.9034 77.266 33.6364C77.266 35.3864 76.4705 36.7216 74.9535 36.7216C73.4933 36.7216 72.6751 35.4716 72.6751 33.6364ZM87.1251 31.4034C86.7728 30.0455 85.7103 29.1591 83.8239 29.1591C81.8524 29.1591 80.4546 30.1989 80.4546 31.7443C80.4546 32.983 81.2046 33.8068 82.841 34.1705L84.3183 34.4943C85.1592 34.6818 85.5512 35.0568 85.5512 35.6023C85.5512 36.2784 84.8296 36.8068 83.716 36.8068C82.6989 36.8068 82.0455 36.3693 81.841 35.5114L80.1989 35.7614C80.483 37.3068 81.7671 38.1761 83.7274 38.1761C85.8353 38.1761 87.2955 37.0568 87.2955 35.4773C87.2955 34.2443 86.5114 33.483 84.9092 33.1136L83.5228 32.7955C82.5626 32.5682 82.1478 32.2443 82.1535 31.6534C82.1478 30.983 82.8751 30.5057 83.841 30.5057C84.8978 30.5057 85.3864 31.0909 85.5853 31.6761L87.1251 31.4034ZM92.9373 29.2727H91.1475V27.1818H89.4487V29.2727H88.1702V30.6364H89.4487V35.7898C89.443 37.375 90.6532 38.142 91.9941 38.1136C92.5339 38.108 92.8975 38.0057 93.0964 37.9318L92.7896 36.5284C92.6759 36.5511 92.4657 36.6023 92.193 36.6023C91.6418 36.6023 91.1475 36.4205 91.1475 35.4375V30.6364H92.9373V29.2727ZM98.0989 38.1761C100.559 38.1761 102.167 36.375 102.167 33.6761C102.167 30.9602 100.559 29.1591 98.0989 29.1591C95.6387 29.1591 94.0308 30.9602 94.0308 33.6761C94.0308 36.375 95.6387 38.1761 98.0989 38.1761ZM98.1046 36.75C96.4967 36.75 95.7467 35.3466 95.7467 33.6705C95.7467 32 96.4967 30.5795 98.1046 30.5795C99.7012 30.5795 100.451 32 100.451 33.6705C100.451 35.3466 99.7012 36.75 98.1046 36.75ZM103.763 38H105.462V32.6705C105.462 31.5284 106.343 30.7045 107.548 30.7045C107.9 30.7045 108.298 30.767 108.434 30.8068V29.1818C108.263 29.1591 107.928 29.142 107.712 29.142C106.69 29.142 105.815 29.7216 105.496 30.6591H105.405V29.2727H103.763V38ZM113.053 38.1761C114.956 38.1761 116.303 37.2386 116.689 35.8182L115.081 35.5284C114.775 36.3523 114.036 36.7727 113.07 36.7727C111.615 36.7727 110.638 35.8295 110.593 34.1477H116.797V33.5455C116.797 30.392 114.911 29.1591 112.934 29.1591C110.502 29.1591 108.9 31.0114 108.9 33.6932C108.9 36.4034 110.479 38.1761 113.053 38.1761ZM110.598 32.875C110.667 31.6364 111.564 30.5625 112.945 30.5625C114.263 30.5625 115.127 31.5398 115.132 32.875H110.598Z" fill="white"/>
<rect x="1.10986" y="0.5" width="132.78" height="49" rx="15.5" stroke="#222E44"/>
</svg>
