<svg width="88" height="26" viewBox="0 0 88 26" fill="none" xmlns="http://www.w3.org/2000/svg">
<path d="M8.448 25.352C6.31467 25.352 4.55467 24.8293 3.168 23.784C1.80267 22.7173 1.07733 21.384 0.992 19.784H6.08C6.12267 20.4027 6.37867 20.8827 6.848 21.224C7.31733 21.544 7.904 21.704 8.608 21.704C9.80267 21.704 10.4 21.3627 10.4 20.68C10.4 20.3387 10.2613 20.0827 9.984 19.912C9.728 19.72 9.25867 19.528 8.576 19.336L5.344 18.504C2.656 17.8 1.312 16.1253 1.312 13.48C1.312 12.0507 1.90933 10.888 3.104 9.992C4.29867 9.096 5.93067 8.648 8 8.648C9.83467 8.648 11.36 9.10667 12.576 10.024C13.8133 10.92 14.496 12.1893 14.624 13.832H9.76C9.568 12.8507 8.94933 12.36 7.904 12.36C6.816 12.36 6.272 12.7013 6.272 13.384C6.272 13.9813 6.816 14.3973 7.904 14.632L10.816 15.4C12.416 15.8267 13.568 16.4453 14.272 17.256C14.976 18.0667 15.328 19.1227 15.328 20.424C15.328 21.896 14.688 23.0907 13.408 24.008C12.128 24.904 10.4747 25.352 8.448 25.352ZM25.8165 25.352C23.3418 25.352 21.3045 24.5627 19.7045 22.984C18.1258 21.4053 17.3365 19.4 17.3365 16.968C17.3365 14.5787 18.1365 12.5947 19.7365 11.016C21.3578 9.43733 23.3845 8.648 25.8165 8.648C26.9898 8.648 28.0885 8.85067 29.1125 9.256C30.1578 9.66133 31.0752 10.248 31.8645 11.016C32.6752 11.784 33.3045 12.776 33.7525 13.992C34.2005 15.208 34.4032 16.584 34.3605 18.12H22.0405C22.1258 18.9947 22.5098 19.7307 23.1925 20.328C23.8752 20.904 24.8352 21.192 26.0725 21.192C26.7765 21.192 27.4165 21.0533 27.9925 20.776C28.5685 20.4773 28.9525 20.1147 29.1445 19.688H34.2005C33.6885 21.3733 32.6645 22.7387 31.1285 23.784C29.5925 24.8293 27.8218 25.352 25.8165 25.352ZM25.6885 12.488C24.7712 12.488 24.0032 12.7227 23.3845 13.192C22.7872 13.6613 22.3818 14.28 22.1685 15.048H29.0165C28.7818 14.1733 28.3445 13.5333 27.7045 13.128C27.0858 12.7013 26.4138 12.488 25.6885 12.488ZM45.144 25.192C43.2667 25.192 41.72 24.68 40.504 23.656C39.3093 22.6107 38.712 21.1067 38.712 19.144V13.192H35.512V9H38.712V4.552H43.544V9H48.024V13.192H43.544V18.152C43.544 19.112 43.7573 19.8053 44.184 20.232C44.6107 20.6587 45.304 20.872 46.264 20.872C46.9893 20.872 47.576 20.776 48.024 20.584V24.872C47.32 25.0853 46.36 25.192 45.144 25.192ZM51.0778 25V9H55.9098V11.4C56.1658 10.6747 56.6458 10.0667 57.3498 9.576C58.0538 9.064 58.8431 8.808 59.7178 8.808C60.2724 8.808 60.7951 8.872 61.2858 9V13.896C60.5391 13.64 59.8244 13.512 59.1418 13.512C58.1178 13.512 57.3178 13.8747 56.7418 14.6C56.1871 15.304 55.9098 16.2427 55.9098 17.416V25H51.0778ZM76.7975 22.952C75.1548 24.552 73.1708 25.352 70.8455 25.352C68.5202 25.352 66.5362 24.552 64.8935 22.952C63.2508 21.3307 62.4295 19.3467 62.4295 17C62.4295 14.6533 63.2508 12.68 64.8935 11.08C66.5362 9.45867 68.5202 8.648 70.8455 8.648C73.1708 8.648 75.1548 9.45867 76.7975 11.08C78.4402 12.68 79.2615 14.6533 79.2615 17C79.2615 19.3467 78.4402 21.3307 76.7975 22.952ZM68.2855 19.784C68.9682 20.488 69.8215 20.84 70.8455 20.84C71.8695 20.84 72.7122 20.488 73.3735 19.784C74.0562 19.08 74.3975 18.152 74.3975 17C74.3975 15.848 74.0562 14.92 73.3735 14.216C72.7122 13.512 71.8695 13.16 70.8455 13.16C69.8215 13.16 68.9682 13.512 68.2855 14.216C67.6242 14.92 67.2935 15.848 67.2935 17C67.2935 18.152 67.6242 19.08 68.2855 19.784ZM84.634 6.824C83.8233 6.824 83.1193 6.536 82.522 5.96C81.9247 5.36267 81.626 4.648 81.626 3.816C81.626 2.984 81.9247 2.28 82.522 1.704C83.1193 1.10667 83.8233 0.807999 84.634 0.807999C85.4873 0.807999 86.202 1.10667 86.778 1.704C87.3753 2.28 87.674 2.984 87.674 3.816C87.674 4.648 87.3753 5.36267 86.778 5.96C86.202 6.536 85.4873 6.824 84.634 6.824ZM82.234 25V9H87.066V25H82.234Z" fill="black"/>
</svg>
