<svg width="238" height="238" viewBox="0 0 238 238" fill="none" xmlns="http://www.w3.org/2000/svg">
<path d="M238 4.90722C238 7.6174 235.803 9.81443 233.093 9.81443C230.383 9.81443 228.186 7.6174 228.186 4.90722C228.186 2.19704 230.383 0 233.093 0C235.803 0 238 2.19704 238 4.90722Z" fill="url(#paint0_radial_9_70)"/>
<path d="M212.646 4.90722C212.646 7.6174 210.449 9.81443 207.739 9.81443C205.029 9.81443 202.832 7.6174 202.832 4.90722C202.832 2.19704 205.029 0 207.739 0C210.449 0 212.646 2.19704 212.646 4.90722Z" fill="url(#paint1_radial_9_70)"/>
<path d="M187.292 4.90722C187.292 7.6174 185.095 9.81443 182.385 9.81443C179.675 9.81443 177.478 7.6174 177.478 4.90722C177.478 2.19704 179.675 0 182.385 0C185.095 0 187.292 2.19704 187.292 4.90722Z" fill="url(#paint2_radial_9_70)"/>
<path d="M161.938 4.90722C161.938 7.6174 159.741 9.81443 157.031 9.81443C154.321 9.81443 152.124 7.6174 152.124 4.90722C152.124 2.19704 154.321 0 157.031 0C159.741 0 161.938 2.19704 161.938 4.90722Z" fill="url(#paint3_radial_9_70)"/>
<path d="M136.584 4.90722C136.584 7.6174 134.387 9.81443 131.677 9.81443C128.967 9.81443 126.77 7.6174 126.77 4.90722C126.77 2.19704 128.967 0 131.677 0C134.387 0 136.584 2.19704 136.584 4.90722Z" fill="url(#paint4_radial_9_70)"/>
<path d="M111.23 4.90722C111.23 7.6174 109.033 9.81443 106.323 9.81443C103.613 9.81443 101.416 7.6174 101.416 4.90722C101.416 2.19704 103.613 0 106.323 0C109.033 0 111.23 2.19704 111.23 4.90722Z" fill="url(#paint5_radial_9_70)"/>
<path d="M85.8763 4.90722C85.8763 7.6174 83.6793 9.81443 80.9691 9.81443C78.2589 9.81443 76.0619 7.6174 76.0619 4.90722C76.0619 2.19704 78.2589 0 80.9691 0C83.6793 0 85.8763 2.19704 85.8763 4.90722Z" fill="url(#paint6_radial_9_70)"/>
<path d="M60.5223 4.90722C60.5223 7.6174 58.3253 9.81443 55.6151 9.81443C52.9049 9.81443 50.7079 7.6174 50.7079 4.90722C50.7079 2.19704 52.9049 0 55.6151 0C58.3253 0 60.5223 2.19704 60.5223 4.90722Z" fill="url(#paint7_radial_9_70)"/>
<path d="M35.1684 4.90722C35.1684 7.6174 32.9713 9.81443 30.2612 9.81443C27.551 9.81443 25.354 7.6174 25.354 4.90722C25.354 2.19704 27.551 0 30.2612 0C32.9713 0 35.1684 2.19704 35.1684 4.90722Z" fill="url(#paint8_radial_9_70)"/>
<path d="M9.81443 4.90722C9.81443 7.6174 7.6174 9.81443 4.90722 9.81443C2.19704 9.81443 0 7.6174 0 4.90722C0 2.19704 2.19704 0 4.90722 0C7.6174 0 9.81443 2.19704 9.81443 4.90722Z" fill="url(#paint9_radial_9_70)"/>
<path d="M238 30.2612C238 32.9713 235.803 35.1684 233.093 35.1684C230.383 35.1684 228.186 32.9713 228.186 30.2612C228.186 27.551 230.383 25.354 233.093 25.354C235.803 25.354 238 27.551 238 30.2612Z" fill="url(#paint10_radial_9_70)"/>
<path d="M212.646 30.2612C212.646 32.9713 210.449 35.1684 207.739 35.1684C205.029 35.1684 202.832 32.9713 202.832 30.2612C202.832 27.551 205.029 25.354 207.739 25.354C210.449 25.354 212.646 27.551 212.646 30.2612Z" fill="url(#paint11_radial_9_70)"/>
<path d="M187.292 30.2612C187.292 32.9713 185.095 35.1684 182.385 35.1684C179.675 35.1684 177.478 32.9713 177.478 30.2612C177.478 27.551 179.675 25.354 182.385 25.354C185.095 25.354 187.292 27.551 187.292 30.2612Z" fill="url(#paint12_radial_9_70)"/>
<path d="M161.938 30.2612C161.938 32.9713 159.741 35.1684 157.031 35.1684C154.321 35.1684 152.124 32.9713 152.124 30.2612C152.124 27.551 154.321 25.354 157.031 25.354C159.741 25.354 161.938 27.551 161.938 30.2612Z" fill="url(#paint13_radial_9_70)"/>
<path d="M136.584 30.2612C136.584 32.9713 134.387 35.1684 131.677 35.1684C128.967 35.1684 126.77 32.9713 126.77 30.2612C126.77 27.551 128.967 25.354 131.677 25.354C134.387 25.354 136.584 27.551 136.584 30.2612Z" fill="url(#paint14_radial_9_70)"/>
<path d="M111.23 30.2612C111.23 32.9713 109.033 35.1684 106.323 35.1684C103.613 35.1684 101.416 32.9713 101.416 30.2612C101.416 27.551 103.613 25.354 106.323 25.354C109.033 25.354 111.23 27.551 111.23 30.2612Z" fill="url(#paint15_radial_9_70)"/>
<path d="M85.8763 30.2612C85.8763 32.9713 83.6793 35.1684 80.9691 35.1684C78.2589 35.1684 76.0619 32.9713 76.0619 30.2612C76.0619 27.551 78.2589 25.354 80.9691 25.354C83.6793 25.354 85.8763 27.551 85.8763 30.2612Z" fill="url(#paint16_radial_9_70)"/>
<path d="M60.5223 30.2612C60.5223 32.9713 58.3253 35.1684 55.6151 35.1684C52.9049 35.1684 50.7079 32.9713 50.7079 30.2612C50.7079 27.551 52.9049 25.354 55.6151 25.354C58.3253 25.354 60.5223 27.551 60.5223 30.2612Z" fill="url(#paint17_radial_9_70)"/>
<path d="M35.1684 30.2612C35.1684 32.9713 32.9713 35.1684 30.2612 35.1684C27.551 35.1684 25.354 32.9713 25.354 30.2612C25.354 27.551 27.551 25.354 30.2612 25.354C32.9713 25.354 35.1684 27.551 35.1684 30.2612Z" fill="url(#paint18_radial_9_70)"/>
<path d="M9.81443 30.2612C9.81443 32.9713 7.6174 35.1684 4.90722 35.1684C2.19704 35.1684 0 32.9713 0 30.2612C0 27.551 2.19704 25.354 4.90722 25.354C7.6174 25.354 9.81443 27.551 9.81443 30.2612Z" fill="url(#paint19_radial_9_70)"/>
<path d="M238 55.6151C238 58.3253 235.803 60.5223 233.093 60.5223C230.383 60.5223 228.186 58.3253 228.186 55.6151C228.186 52.9049 230.383 50.7079 233.093 50.7079C235.803 50.7079 238 52.9049 238 55.6151Z" fill="url(#paint20_radial_9_70)"/>
<path d="M212.646 55.6151C212.646 58.3253 210.449 60.5223 207.739 60.5223C205.029 60.5223 202.832 58.3253 202.832 55.6151C202.832 52.9049 205.029 50.7079 207.739 50.7079C210.449 50.7079 212.646 52.9049 212.646 55.6151Z" fill="url(#paint21_radial_9_70)"/>
<path d="M187.292 55.6151C187.292 58.3253 185.095 60.5223 182.385 60.5223C179.675 60.5223 177.478 58.3253 177.478 55.6151C177.478 52.9049 179.675 50.7079 182.385 50.7079C185.095 50.7079 187.292 52.9049 187.292 55.6151Z" fill="url(#paint22_radial_9_70)"/>
<path d="M161.938 55.6151C161.938 58.3253 159.741 60.5223 157.031 60.5223C154.321 60.5223 152.124 58.3253 152.124 55.6151C152.124 52.9049 154.321 50.7079 157.031 50.7079C159.741 50.7079 161.938 52.9049 161.938 55.6151Z" fill="url(#paint23_radial_9_70)"/>
<path d="M136.584 55.6151C136.584 58.3253 134.387 60.5223 131.677 60.5223C128.967 60.5223 126.77 58.3253 126.77 55.6151C126.77 52.9049 128.967 50.7079 131.677 50.7079C134.387 50.7079 136.584 52.9049 136.584 55.6151Z" fill="url(#paint24_radial_9_70)"/>
<path d="M111.23 55.6151C111.23 58.3253 109.033 60.5223 106.323 60.5223C103.613 60.5223 101.416 58.3253 101.416 55.6151C101.416 52.9049 103.613 50.7079 106.323 50.7079C109.033 50.7079 111.23 52.9049 111.23 55.6151Z" fill="url(#paint25_radial_9_70)"/>
<path d="M85.8763 55.6151C85.8763 58.3253 83.6793 60.5223 80.9691 60.5223C78.2589 60.5223 76.0619 58.3253 76.0619 55.6151C76.0619 52.9049 78.2589 50.7079 80.9691 50.7079C83.6793 50.7079 85.8763 52.9049 85.8763 55.6151Z" fill="url(#paint26_radial_9_70)"/>
<path d="M60.5223 55.6151C60.5223 58.3253 58.3253 60.5223 55.6151 60.5223C52.9049 60.5223 50.7079 58.3253 50.7079 55.6151C50.7079 52.9049 52.9049 50.7079 55.6151 50.7079C58.3253 50.7079 60.5223 52.9049 60.5223 55.6151Z" fill="url(#paint27_radial_9_70)"/>
<path d="M35.1684 55.6151C35.1684 58.3253 32.9713 60.5223 30.2612 60.5223C27.551 60.5223 25.354 58.3253 25.354 55.6151C25.354 52.9049 27.551 50.7079 30.2612 50.7079C32.9713 50.7079 35.1684 52.9049 35.1684 55.6151Z" fill="url(#paint28_radial_9_70)"/>
<path d="M9.81443 55.6151C9.81443 58.3253 7.6174 60.5223 4.90722 60.5223C2.19704 60.5223 0 58.3253 0 55.6151C0 52.9049 2.19704 50.7079 4.90722 50.7079C7.6174 50.7079 9.81443 52.9049 9.81443 55.6151Z" fill="url(#paint29_radial_9_70)"/>
<path d="M238 80.9691C238 83.6793 235.803 85.8763 233.093 85.8763C230.383 85.8763 228.186 83.6793 228.186 80.9691C228.186 78.2589 230.383 76.0619 233.093 76.0619C235.803 76.0619 238 78.2589 238 80.9691Z" fill="url(#paint30_radial_9_70)"/>
<path d="M212.646 80.9691C212.646 83.6793 210.449 85.8763 207.739 85.8763C205.029 85.8763 202.832 83.6793 202.832 80.9691C202.832 78.2589 205.029 76.0619 207.739 76.0619C210.449 76.0619 212.646 78.2589 212.646 80.9691Z" fill="url(#paint31_radial_9_70)"/>
<path d="M187.292 80.9691C187.292 83.6793 185.095 85.8763 182.385 85.8763C179.675 85.8763 177.478 83.6793 177.478 80.9691C177.478 78.2589 179.675 76.0619 182.385 76.0619C185.095 76.0619 187.292 78.2589 187.292 80.9691Z" fill="url(#paint32_radial_9_70)"/>
<path d="M161.938 80.9691C161.938 83.6793 159.741 85.8763 157.031 85.8763C154.321 85.8763 152.124 83.6793 152.124 80.9691C152.124 78.2589 154.321 76.0619 157.031 76.0619C159.741 76.0619 161.938 78.2589 161.938 80.9691Z" fill="url(#paint33_radial_9_70)"/>
<path d="M136.584 80.9691C136.584 83.6793 134.387 85.8763 131.677 85.8763C128.967 85.8763 126.77 83.6793 126.77 80.9691C126.77 78.2589 128.967 76.0619 131.677 76.0619C134.387 76.0619 136.584 78.2589 136.584 80.9691Z" fill="url(#paint34_radial_9_70)"/>
<path d="M111.23 80.9691C111.23 83.6793 109.033 85.8763 106.323 85.8763C103.613 85.8763 101.416 83.6793 101.416 80.9691C101.416 78.2589 103.613 76.0619 106.323 76.0619C109.033 76.0619 111.23 78.2589 111.23 80.9691Z" fill="url(#paint35_radial_9_70)"/>
<path d="M85.8763 80.9691C85.8763 83.6793 83.6793 85.8763 80.9691 85.8763C78.2589 85.8763 76.0619 83.6793 76.0619 80.9691C76.0619 78.2589 78.2589 76.0619 80.9691 76.0619C83.6793 76.0619 85.8763 78.2589 85.8763 80.9691Z" fill="url(#paint36_radial_9_70)"/>
<path d="M60.5223 80.9691C60.5223 83.6793 58.3253 85.8763 55.6151 85.8763C52.9049 85.8763 50.7079 83.6793 50.7079 80.9691C50.7079 78.2589 52.9049 76.0619 55.6151 76.0619C58.3253 76.0619 60.5223 78.2589 60.5223 80.9691Z" fill="url(#paint37_radial_9_70)"/>
<path d="M35.1684 80.9691C35.1684 83.6793 32.9713 85.8763 30.2612 85.8763C27.551 85.8763 25.354 83.6793 25.354 80.9691C25.354 78.2589 27.551 76.0619 30.2612 76.0619C32.9713 76.0619 35.1684 78.2589 35.1684 80.9691Z" fill="url(#paint38_radial_9_70)"/>
<path d="M9.81443 80.9691C9.81443 83.6793 7.6174 85.8763 4.90722 85.8763C2.19704 85.8763 0 83.6793 0 80.9691C0 78.2589 2.19704 76.0619 4.90722 76.0619C7.6174 76.0619 9.81443 78.2589 9.81443 80.9691Z" fill="url(#paint39_radial_9_70)"/>
<path d="M238 106.323C238 109.033 235.803 111.23 233.093 111.23C230.383 111.23 228.186 109.033 228.186 106.323C228.186 103.613 230.383 101.416 233.093 101.416C235.803 101.416 238 103.613 238 106.323Z" fill="url(#paint40_radial_9_70)"/>
<path d="M212.646 106.323C212.646 109.033 210.449 111.23 207.739 111.23C205.029 111.23 202.832 109.033 202.832 106.323C202.832 103.613 205.029 101.416 207.739 101.416C210.449 101.416 212.646 103.613 212.646 106.323Z" fill="url(#paint41_radial_9_70)"/>
<path d="M187.292 106.323C187.292 109.033 185.095 111.23 182.385 111.23C179.675 111.23 177.478 109.033 177.478 106.323C177.478 103.613 179.675 101.416 182.385 101.416C185.095 101.416 187.292 103.613 187.292 106.323Z" fill="url(#paint42_radial_9_70)"/>
<path d="M161.938 106.323C161.938 109.033 159.741 111.23 157.031 111.23C154.321 111.23 152.124 109.033 152.124 106.323C152.124 103.613 154.321 101.416 157.031 101.416C159.741 101.416 161.938 103.613 161.938 106.323Z" fill="url(#paint43_radial_9_70)"/>
<path d="M136.584 106.323C136.584 109.033 134.387 111.23 131.677 111.23C128.967 111.23 126.77 109.033 126.77 106.323C126.77 103.613 128.967 101.416 131.677 101.416C134.387 101.416 136.584 103.613 136.584 106.323Z" fill="url(#paint44_radial_9_70)"/>
<path d="M111.23 106.323C111.23 109.033 109.033 111.23 106.323 111.23C103.613 111.23 101.416 109.033 101.416 106.323C101.416 103.613 103.613 101.416 106.323 101.416C109.033 101.416 111.23 103.613 111.23 106.323Z" fill="url(#paint45_radial_9_70)"/>
<path d="M85.8763 106.323C85.8763 109.033 83.6793 111.23 80.9691 111.23C78.2589 111.23 76.0619 109.033 76.0619 106.323C76.0619 103.613 78.2589 101.416 80.9691 101.416C83.6793 101.416 85.8763 103.613 85.8763 106.323Z" fill="url(#paint46_radial_9_70)"/>
<path d="M60.5223 106.323C60.5223 109.033 58.3253 111.23 55.6151 111.23C52.9049 111.23 50.7079 109.033 50.7079 106.323C50.7079 103.613 52.9049 101.416 55.6151 101.416C58.3253 101.416 60.5223 103.613 60.5223 106.323Z" fill="url(#paint47_radial_9_70)"/>
<path d="M35.1684 106.323C35.1684 109.033 32.9713 111.23 30.2612 111.23C27.551 111.23 25.354 109.033 25.354 106.323C25.354 103.613 27.551 101.416 30.2612 101.416C32.9713 101.416 35.1684 103.613 35.1684 106.323Z" fill="url(#paint48_radial_9_70)"/>
<path d="M9.81443 106.323C9.81443 109.033 7.6174 111.23 4.90722 111.23C2.19704 111.23 0 109.033 0 106.323C0 103.613 2.19704 101.416 4.90722 101.416C7.6174 101.416 9.81443 103.613 9.81443 106.323Z" fill="url(#paint49_radial_9_70)"/>
<path d="M238 131.677C238 134.387 235.803 136.584 233.093 136.584C230.383 136.584 228.186 134.387 228.186 131.677C228.186 128.967 230.383 126.77 233.093 126.77C235.803 126.77 238 128.967 238 131.677Z" fill="url(#paint50_radial_9_70)"/>
<path d="M212.646 131.677C212.646 134.387 210.449 136.584 207.739 136.584C205.029 136.584 202.832 134.387 202.832 131.677C202.832 128.967 205.029 126.77 207.739 126.77C210.449 126.77 212.646 128.967 212.646 131.677Z" fill="url(#paint51_radial_9_70)"/>
<path d="M187.292 131.677C187.292 134.387 185.095 136.584 182.385 136.584C179.675 136.584 177.478 134.387 177.478 131.677C177.478 128.967 179.675 126.77 182.385 126.77C185.095 126.77 187.292 128.967 187.292 131.677Z" fill="url(#paint52_radial_9_70)"/>
<path d="M161.938 131.677C161.938 134.387 159.741 136.584 157.031 136.584C154.321 136.584 152.124 134.387 152.124 131.677C152.124 128.967 154.321 126.77 157.031 126.77C159.741 126.77 161.938 128.967 161.938 131.677Z" fill="url(#paint53_radial_9_70)"/>
<path d="M136.584 131.677C136.584 134.387 134.387 136.584 131.677 136.584C128.967 136.584 126.77 134.387 126.77 131.677C126.77 128.967 128.967 126.77 131.677 126.77C134.387 126.77 136.584 128.967 136.584 131.677Z" fill="url(#paint54_radial_9_70)"/>
<path d="M111.23 131.677C111.23 134.387 109.033 136.584 106.323 136.584C103.613 136.584 101.416 134.387 101.416 131.677C101.416 128.967 103.613 126.77 106.323 126.77C109.033 126.77 111.23 128.967 111.23 131.677Z" fill="url(#paint55_radial_9_70)"/>
<path d="M85.8763 131.677C85.8763 134.387 83.6793 136.584 80.9691 136.584C78.2589 136.584 76.0619 134.387 76.0619 131.677C76.0619 128.967 78.2589 126.77 80.9691 126.77C83.6793 126.77 85.8763 128.967 85.8763 131.677Z" fill="url(#paint56_radial_9_70)"/>
<path d="M60.5223 131.677C60.5223 134.387 58.3253 136.584 55.6151 136.584C52.9049 136.584 50.7079 134.387 50.7079 131.677C50.7079 128.967 52.9049 126.77 55.6151 126.77C58.3253 126.77 60.5223 128.967 60.5223 131.677Z" fill="url(#paint57_radial_9_70)"/>
<path d="M35.1684 131.677C35.1684 134.387 32.9713 136.584 30.2612 136.584C27.551 136.584 25.354 134.387 25.354 131.677C25.354 128.967 27.551 126.77 30.2612 126.77C32.9713 126.77 35.1684 128.967 35.1684 131.677Z" fill="url(#paint58_radial_9_70)"/>
<path d="M9.81443 131.677C9.81443 134.387 7.6174 136.584 4.90722 136.584C2.19704 136.584 0 134.387 0 131.677C0 128.967 2.19704 126.77 4.90722 126.77C7.6174 126.77 9.81443 128.967 9.81443 131.677Z" fill="url(#paint59_radial_9_70)"/>
<path d="M238 157.031C238 159.741 235.803 161.938 233.093 161.938C230.383 161.938 228.186 159.741 228.186 157.031C228.186 154.321 230.383 152.124 233.093 152.124C235.803 152.124 238 154.321 238 157.031Z" fill="url(#paint60_radial_9_70)"/>
<path d="M212.646 157.031C212.646 159.741 210.449 161.938 207.739 161.938C205.029 161.938 202.832 159.741 202.832 157.031C202.832 154.321 205.029 152.124 207.739 152.124C210.449 152.124 212.646 154.321 212.646 157.031Z" fill="url(#paint61_radial_9_70)"/>
<path d="M187.292 157.031C187.292 159.741 185.095 161.938 182.385 161.938C179.675 161.938 177.478 159.741 177.478 157.031C177.478 154.321 179.675 152.124 182.385 152.124C185.095 152.124 187.292 154.321 187.292 157.031Z" fill="url(#paint62_radial_9_70)"/>
<path d="M161.938 157.031C161.938 159.741 159.741 161.938 157.031 161.938C154.321 161.938 152.124 159.741 152.124 157.031C152.124 154.321 154.321 152.124 157.031 152.124C159.741 152.124 161.938 154.321 161.938 157.031Z" fill="url(#paint63_radial_9_70)"/>
<path d="M136.584 157.031C136.584 159.741 134.387 161.938 131.677 161.938C128.967 161.938 126.77 159.741 126.77 157.031C126.77 154.321 128.967 152.124 131.677 152.124C134.387 152.124 136.584 154.321 136.584 157.031Z" fill="url(#paint64_radial_9_70)"/>
<path d="M111.23 157.031C111.23 159.741 109.033 161.938 106.323 161.938C103.613 161.938 101.416 159.741 101.416 157.031C101.416 154.321 103.613 152.124 106.323 152.124C109.033 152.124 111.23 154.321 111.23 157.031Z" fill="url(#paint65_radial_9_70)"/>
<path d="M85.8763 157.031C85.8763 159.741 83.6793 161.938 80.9691 161.938C78.2589 161.938 76.0619 159.741 76.0619 157.031C76.0619 154.321 78.2589 152.124 80.9691 152.124C83.6793 152.124 85.8763 154.321 85.8763 157.031Z" fill="url(#paint66_radial_9_70)"/>
<path d="M60.5223 157.031C60.5223 159.741 58.3253 161.938 55.6151 161.938C52.9049 161.938 50.7079 159.741 50.7079 157.031C50.7079 154.321 52.9049 152.124 55.6151 152.124C58.3253 152.124 60.5223 154.321 60.5223 157.031Z" fill="url(#paint67_radial_9_70)"/>
<path d="M35.1684 157.031C35.1684 159.741 32.9713 161.938 30.2612 161.938C27.551 161.938 25.354 159.741 25.354 157.031C25.354 154.321 27.551 152.124 30.2612 152.124C32.9713 152.124 35.1684 154.321 35.1684 157.031Z" fill="url(#paint68_radial_9_70)"/>
<path d="M9.81443 157.031C9.81443 159.741 7.6174 161.938 4.90722 161.938C2.19704 161.938 0 159.741 0 157.031C0 154.321 2.19704 152.124 4.90722 152.124C7.6174 152.124 9.81443 154.321 9.81443 157.031Z" fill="url(#paint69_radial_9_70)"/>
<path d="M238 182.385C238 185.095 235.803 187.292 233.093 187.292C230.383 187.292 228.186 185.095 228.186 182.385C228.186 179.675 230.383 177.478 233.093 177.478C235.803 177.478 238 179.675 238 182.385Z" fill="url(#paint70_radial_9_70)"/>
<path d="M212.646 182.385C212.646 185.095 210.449 187.292 207.739 187.292C205.029 187.292 202.832 185.095 202.832 182.385C202.832 179.675 205.029 177.478 207.739 177.478C210.449 177.478 212.646 179.675 212.646 182.385Z" fill="url(#paint71_radial_9_70)"/>
<path d="M187.292 182.385C187.292 185.095 185.095 187.292 182.385 187.292C179.675 187.292 177.478 185.095 177.478 182.385C177.478 179.675 179.675 177.478 182.385 177.478C185.095 177.478 187.292 179.675 187.292 182.385Z" fill="url(#paint72_radial_9_70)"/>
<path d="M161.938 182.385C161.938 185.095 159.741 187.292 157.031 187.292C154.321 187.292 152.124 185.095 152.124 182.385C152.124 179.675 154.321 177.478 157.031 177.478C159.741 177.478 161.938 179.675 161.938 182.385Z" fill="url(#paint73_radial_9_70)"/>
<path d="M136.584 182.385C136.584 185.095 134.387 187.292 131.677 187.292C128.967 187.292 126.77 185.095 126.77 182.385C126.77 179.675 128.967 177.478 131.677 177.478C134.387 177.478 136.584 179.675 136.584 182.385Z" fill="url(#paint74_radial_9_70)"/>
<path d="M111.23 182.385C111.23 185.095 109.033 187.292 106.323 187.292C103.613 187.292 101.416 185.095 101.416 182.385C101.416 179.675 103.613 177.478 106.323 177.478C109.033 177.478 111.23 179.675 111.23 182.385Z" fill="url(#paint75_radial_9_70)"/>
<path d="M85.8763 182.385C85.8763 185.095 83.6793 187.292 80.9691 187.292C78.2589 187.292 76.0619 185.095 76.0619 182.385C76.0619 179.675 78.2589 177.478 80.9691 177.478C83.6793 177.478 85.8763 179.675 85.8763 182.385Z" fill="url(#paint76_radial_9_70)"/>
<path d="M60.5223 182.385C60.5223 185.095 58.3253 187.292 55.6151 187.292C52.9049 187.292 50.7079 185.095 50.7079 182.385C50.7079 179.675 52.9049 177.478 55.6151 177.478C58.3253 177.478 60.5223 179.675 60.5223 182.385Z" fill="url(#paint77_radial_9_70)"/>
<path d="M35.1684 182.385C35.1684 185.095 32.9713 187.292 30.2612 187.292C27.551 187.292 25.354 185.095 25.354 182.385C25.354 179.675 27.551 177.478 30.2612 177.478C32.9713 177.478 35.1684 179.675 35.1684 182.385Z" fill="url(#paint78_radial_9_70)"/>
<path d="M9.81443 182.385C9.81443 185.095 7.6174 187.292 4.90722 187.292C2.19704 187.292 0 185.095 0 182.385C0 179.675 2.19704 177.478 4.90722 177.478C7.6174 177.478 9.81443 179.675 9.81443 182.385Z" fill="url(#paint79_radial_9_70)"/>
<path d="M238 207.739C238 210.449 235.803 212.646 233.093 212.646C230.383 212.646 228.186 210.449 228.186 207.739C228.186 205.029 230.383 202.832 233.093 202.832C235.803 202.832 238 205.029 238 207.739Z" fill="url(#paint80_radial_9_70)"/>
<path d="M212.646 207.739C212.646 210.449 210.449 212.646 207.739 212.646C205.029 212.646 202.832 210.449 202.832 207.739C202.832 205.029 205.029 202.832 207.739 202.832C210.449 202.832 212.646 205.029 212.646 207.739Z" fill="url(#paint81_radial_9_70)"/>
<path d="M187.292 207.739C187.292 210.449 185.095 212.646 182.385 212.646C179.675 212.646 177.478 210.449 177.478 207.739C177.478 205.029 179.675 202.832 182.385 202.832C185.095 202.832 187.292 205.029 187.292 207.739Z" fill="url(#paint82_radial_9_70)"/>
<path d="M161.938 207.739C161.938 210.449 159.741 212.646 157.031 212.646C154.321 212.646 152.124 210.449 152.124 207.739C152.124 205.029 154.321 202.832 157.031 202.832C159.741 202.832 161.938 205.029 161.938 207.739Z" fill="url(#paint83_radial_9_70)"/>
<path d="M136.584 207.739C136.584 210.449 134.387 212.646 131.677 212.646C128.967 212.646 126.77 210.449 126.77 207.739C126.77 205.029 128.967 202.832 131.677 202.832C134.387 202.832 136.584 205.029 136.584 207.739Z" fill="url(#paint84_radial_9_70)"/>
<path d="M111.23 207.739C111.23 210.449 109.033 212.646 106.323 212.646C103.613 212.646 101.416 210.449 101.416 207.739C101.416 205.029 103.613 202.832 106.323 202.832C109.033 202.832 111.23 205.029 111.23 207.739Z" fill="url(#paint85_radial_9_70)"/>
<path d="M85.8763 207.739C85.8763 210.449 83.6793 212.646 80.9691 212.646C78.2589 212.646 76.0619 210.449 76.0619 207.739C76.0619 205.029 78.2589 202.832 80.9691 202.832C83.6793 202.832 85.8763 205.029 85.8763 207.739Z" fill="url(#paint86_radial_9_70)"/>
<path d="M60.5223 207.739C60.5223 210.449 58.3253 212.646 55.6151 212.646C52.9049 212.646 50.7079 210.449 50.7079 207.739C50.7079 205.029 52.9049 202.832 55.6151 202.832C58.3253 202.832 60.5223 205.029 60.5223 207.739Z" fill="url(#paint87_radial_9_70)"/>
<path d="M35.1684 207.739C35.1684 210.449 32.9713 212.646 30.2612 212.646C27.551 212.646 25.354 210.449 25.354 207.739C25.354 205.029 27.551 202.832 30.2612 202.832C32.9713 202.832 35.1684 205.029 35.1684 207.739Z" fill="url(#paint88_radial_9_70)"/>
<path d="M9.81443 207.739C9.81443 210.449 7.6174 212.646 4.90722 212.646C2.19704 212.646 0 210.449 0 207.739C0 205.029 2.19704 202.832 4.90722 202.832C7.6174 202.832 9.81443 205.029 9.81443 207.739Z" fill="url(#paint89_radial_9_70)"/>
<path d="M238 233.093C238 235.803 235.803 238 233.093 238C230.383 238 228.186 235.803 228.186 233.093C228.186 230.383 230.383 228.186 233.093 228.186C235.803 228.186 238 230.383 238 233.093Z" fill="url(#paint90_radial_9_70)"/>
<path d="M212.646 233.093C212.646 235.803 210.449 238 207.739 238C205.029 238 202.832 235.803 202.832 233.093C202.832 230.383 205.029 228.186 207.739 228.186C210.449 228.186 212.646 230.383 212.646 233.093Z" fill="url(#paint91_radial_9_70)"/>
<path d="M187.292 233.093C187.292 235.803 185.095 238 182.385 238C179.675 238 177.478 235.803 177.478 233.093C177.478 230.383 179.675 228.186 182.385 228.186C185.095 228.186 187.292 230.383 187.292 233.093Z" fill="url(#paint92_radial_9_70)"/>
<path d="M161.938 233.093C161.938 235.803 159.741 238 157.031 238C154.321 238 152.124 235.803 152.124 233.093C152.124 230.383 154.321 228.186 157.031 228.186C159.741 228.186 161.938 230.383 161.938 233.093Z" fill="url(#paint93_radial_9_70)"/>
<path d="M136.584 233.093C136.584 235.803 134.387 238 131.677 238C128.967 238 126.77 235.803 126.77 233.093C126.77 230.383 128.967 228.186 131.677 228.186C134.387 228.186 136.584 230.383 136.584 233.093Z" fill="url(#paint94_radial_9_70)"/>
<path d="M111.23 233.093C111.23 235.803 109.033 238 106.323 238C103.613 238 101.416 235.803 101.416 233.093C101.416 230.383 103.613 228.186 106.323 228.186C109.033 228.186 111.23 230.383 111.23 233.093Z" fill="url(#paint95_radial_9_70)"/>
<path d="M85.8763 233.093C85.8763 235.803 83.6793 238 80.9691 238C78.2589 238 76.0619 235.803 76.0619 233.093C76.0619 230.383 78.2589 228.186 80.9691 228.186C83.6793 228.186 85.8763 230.383 85.8763 233.093Z" fill="url(#paint96_radial_9_70)"/>
<path d="M60.5223 233.093C60.5223 235.803 58.3253 238 55.6151 238C52.9049 238 50.7079 235.803 50.7079 233.093C50.7079 230.383 52.9049 228.186 55.6151 228.186C58.3253 228.186 60.5223 230.383 60.5223 233.093Z" fill="url(#paint97_radial_9_70)"/>
<path d="M35.1684 233.093C35.1684 235.803 32.9713 238 30.2612 238C27.551 238 25.354 235.803 25.354 233.093C25.354 230.383 27.551 228.186 30.2612 228.186C32.9713 228.186 35.1684 230.383 35.1684 233.093Z" fill="url(#paint98_radial_9_70)"/>
<path d="M9.81443 233.093C9.81443 235.803 7.6174 238 4.90722 238C2.19704 238 0 235.803 0 233.093C0 230.383 2.19704 228.186 4.90722 228.186C7.6174 228.186 9.81443 230.383 9.81443 233.093Z" fill="url(#paint99_radial_9_70)"/>
<defs>
<radialGradient id="paint0_radial_9_70" cx="0" cy="0" r="1" gradientUnits="userSpaceOnUse" gradientTransform="translate(119 119) rotate(90) scale(119)">
<stop stop-color="#00DC7E"/>
<stop offset="1" stop-color="white" stop-opacity="0"/>
</radialGradient>
<radialGradient id="paint1_radial_9_70" cx="0" cy="0" r="1" gradientUnits="userSpaceOnUse" gradientTransform="translate(119 119) rotate(90) scale(119)">
<stop stop-color="#00DC7E"/>
<stop offset="1" stop-color="white" stop-opacity="0"/>
</radialGradient>
<radialGradient id="paint2_radial_9_70" cx="0" cy="0" r="1" gradientUnits="userSpaceOnUse" gradientTransform="translate(119 119) rotate(90) scale(119)">
<stop stop-color="#00DC7E"/>
<stop offset="1" stop-color="white" stop-opacity="0"/>
</radialGradient>
<radialGradient id="paint3_radial_9_70" cx="0" cy="0" r="1" gradientUnits="userSpaceOnUse" gradientTransform="translate(119 119) rotate(90) scale(119)">
<stop stop-color="#00DC7E"/>
<stop offset="1" stop-color="white" stop-opacity="0"/>
</radialGradient>
<radialGradient id="paint4_radial_9_70" cx="0" cy="0" r="1" gradientUnits="userSpaceOnUse" gradientTransform="translate(119 119) rotate(90) scale(119)">
<stop stop-color="#00DC7E"/>
<stop offset="1" stop-color="white" stop-opacity="0"/>
</radialGradient>
<radialGradient id="paint5_radial_9_70" cx="0" cy="0" r="1" gradientUnits="userSpaceOnUse" gradientTransform="translate(119 119) rotate(90) scale(119)">
<stop stop-color="#00DC7E"/>
<stop offset="1" stop-color="white" stop-opacity="0"/>
</radialGradient>
<radialGradient id="paint6_radial_9_70" cx="0" cy="0" r="1" gradientUnits="userSpaceOnUse" gradientTransform="translate(119 119) rotate(90) scale(119)">
<stop stop-color="#00DC7E"/>
<stop offset="1" stop-color="white" stop-opacity="0"/>
</radialGradient>
<radialGradient id="paint7_radial_9_70" cx="0" cy="0" r="1" gradientUnits="userSpaceOnUse" gradientTransform="translate(119 119) rotate(90) scale(119)">
<stop stop-color="#00DC7E"/>
<stop offset="1" stop-color="white" stop-opacity="0"/>
</radialGradient>
<radialGradient id="paint8_radial_9_70" cx="0" cy="0" r="1" gradientUnits="userSpaceOnUse" gradientTransform="translate(119 119) rotate(90) scale(119)">
<stop stop-color="#00DC7E"/>
<stop offset="1" stop-color="white" stop-opacity="0"/>
</radialGradient>
<radialGradient id="paint9_radial_9_70" cx="0" cy="0" r="1" gradientUnits="userSpaceOnUse" gradientTransform="translate(119 119) rotate(90) scale(119)">
<stop stop-color="#00DC7E"/>
<stop offset="1" stop-color="white" stop-opacity="0"/>
</radialGradient>
<radialGradient id="paint10_radial_9_70" cx="0" cy="0" r="1" gradientUnits="userSpaceOnUse" gradientTransform="translate(119 119) rotate(90) scale(119)">
<stop stop-color="#00DC7E"/>
<stop offset="1" stop-color="white" stop-opacity="0"/>
</radialGradient>
<radialGradient id="paint11_radial_9_70" cx="0" cy="0" r="1" gradientUnits="userSpaceOnUse" gradientTransform="translate(119 119) rotate(90) scale(119)">
<stop stop-color="#00DC7E"/>
<stop offset="1" stop-color="white" stop-opacity="0"/>
</radialGradient>
<radialGradient id="paint12_radial_9_70" cx="0" cy="0" r="1" gradientUnits="userSpaceOnUse" gradientTransform="translate(119 119) rotate(90) scale(119)">
<stop stop-color="#00DC7E"/>
<stop offset="1" stop-color="white" stop-opacity="0"/>
</radialGradient>
<radialGradient id="paint13_radial_9_70" cx="0" cy="0" r="1" gradientUnits="userSpaceOnUse" gradientTransform="translate(119 119) rotate(90) scale(119)">
<stop stop-color="#00DC7E"/>
<stop offset="1" stop-color="white" stop-opacity="0"/>
</radialGradient>
<radialGradient id="paint14_radial_9_70" cx="0" cy="0" r="1" gradientUnits="userSpaceOnUse" gradientTransform="translate(119 119) rotate(90) scale(119)">
<stop stop-color="#00DC7E"/>
<stop offset="1" stop-color="white" stop-opacity="0"/>
</radialGradient>
<radialGradient id="paint15_radial_9_70" cx="0" cy="0" r="1" gradientUnits="userSpaceOnUse" gradientTransform="translate(119 119) rotate(90) scale(119)">
<stop stop-color="#00DC7E"/>
<stop offset="1" stop-color="white" stop-opacity="0"/>
</radialGradient>
<radialGradient id="paint16_radial_9_70" cx="0" cy="0" r="1" gradientUnits="userSpaceOnUse" gradientTransform="translate(119 119) rotate(90) scale(119)">
<stop stop-color="#00DC7E"/>
<stop offset="1" stop-color="white" stop-opacity="0"/>
</radialGradient>
<radialGradient id="paint17_radial_9_70" cx="0" cy="0" r="1" gradientUnits="userSpaceOnUse" gradientTransform="translate(119 119) rotate(90) scale(119)">
<stop stop-color="#00DC7E"/>
<stop offset="1" stop-color="white" stop-opacity="0"/>
</radialGradient>
<radialGradient id="paint18_radial_9_70" cx="0" cy="0" r="1" gradientUnits="userSpaceOnUse" gradientTransform="translate(119 119) rotate(90) scale(119)">
<stop stop-color="#00DC7E"/>
<stop offset="1" stop-color="white" stop-opacity="0"/>
</radialGradient>
<radialGradient id="paint19_radial_9_70" cx="0" cy="0" r="1" gradientUnits="userSpaceOnUse" gradientTransform="translate(119 119) rotate(90) scale(119)">
<stop stop-color="#00DC7E"/>
<stop offset="1" stop-color="white" stop-opacity="0"/>
</radialGradient>
<radialGradient id="paint20_radial_9_70" cx="0" cy="0" r="1" gradientUnits="userSpaceOnUse" gradientTransform="translate(119 119) rotate(90) scale(119)">
<stop stop-color="#00DC7E"/>
<stop offset="1" stop-color="white" stop-opacity="0"/>
</radialGradient>
<radialGradient id="paint21_radial_9_70" cx="0" cy="0" r="1" gradientUnits="userSpaceOnUse" gradientTransform="translate(119 119) rotate(90) scale(119)">
<stop stop-color="#00DC7E"/>
<stop offset="1" stop-color="white" stop-opacity="0"/>
</radialGradient>
<radialGradient id="paint22_radial_9_70" cx="0" cy="0" r="1" gradientUnits="userSpaceOnUse" gradientTransform="translate(119 119) rotate(90) scale(119)">
<stop stop-color="#00DC7E"/>
<stop offset="1" stop-color="white" stop-opacity="0"/>
</radialGradient>
<radialGradient id="paint23_radial_9_70" cx="0" cy="0" r="1" gradientUnits="userSpaceOnUse" gradientTransform="translate(119 119) rotate(90) scale(119)">
<stop stop-color="#00DC7E"/>
<stop offset="1" stop-color="white" stop-opacity="0"/>
</radialGradient>
<radialGradient id="paint24_radial_9_70" cx="0" cy="0" r="1" gradientUnits="userSpaceOnUse" gradientTransform="translate(119 119) rotate(90) scale(119)">
<stop stop-color="#00DC7E"/>
<stop offset="1" stop-color="white" stop-opacity="0"/>
</radialGradient>
<radialGradient id="paint25_radial_9_70" cx="0" cy="0" r="1" gradientUnits="userSpaceOnUse" gradientTransform="translate(119 119) rotate(90) scale(119)">
<stop stop-color="#00DC7E"/>
<stop offset="1" stop-color="white" stop-opacity="0"/>
</radialGradient>
<radialGradient id="paint26_radial_9_70" cx="0" cy="0" r="1" gradientUnits="userSpaceOnUse" gradientTransform="translate(119 119) rotate(90) scale(119)">
<stop stop-color="#00DC7E"/>
<stop offset="1" stop-color="white" stop-opacity="0"/>
</radialGradient>
<radialGradient id="paint27_radial_9_70" cx="0" cy="0" r="1" gradientUnits="userSpaceOnUse" gradientTransform="translate(119 119) rotate(90) scale(119)">
<stop stop-color="#00DC7E"/>
<stop offset="1" stop-color="white" stop-opacity="0"/>
</radialGradient>
<radialGradient id="paint28_radial_9_70" cx="0" cy="0" r="1" gradientUnits="userSpaceOnUse" gradientTransform="translate(119 119) rotate(90) scale(119)">
<stop stop-color="#00DC7E"/>
<stop offset="1" stop-color="white" stop-opacity="0"/>
</radialGradient>
<radialGradient id="paint29_radial_9_70" cx="0" cy="0" r="1" gradientUnits="userSpaceOnUse" gradientTransform="translate(119 119) rotate(90) scale(119)">
<stop stop-color="#00DC7E"/>
<stop offset="1" stop-color="white" stop-opacity="0"/>
</radialGradient>
<radialGradient id="paint30_radial_9_70" cx="0" cy="0" r="1" gradientUnits="userSpaceOnUse" gradientTransform="translate(119 119) rotate(90) scale(119)">
<stop stop-color="#00DC7E"/>
<stop offset="1" stop-color="white" stop-opacity="0"/>
</radialGradient>
<radialGradient id="paint31_radial_9_70" cx="0" cy="0" r="1" gradientUnits="userSpaceOnUse" gradientTransform="translate(119 119) rotate(90) scale(119)">
<stop stop-color="#00DC7E"/>
<stop offset="1" stop-color="white" stop-opacity="0"/>
</radialGradient>
<radialGradient id="paint32_radial_9_70" cx="0" cy="0" r="1" gradientUnits="userSpaceOnUse" gradientTransform="translate(119 119) rotate(90) scale(119)">
<stop stop-color="#00DC7E"/>
<stop offset="1" stop-color="white" stop-opacity="0"/>
</radialGradient>
<radialGradient id="paint33_radial_9_70" cx="0" cy="0" r="1" gradientUnits="userSpaceOnUse" gradientTransform="translate(119 119) rotate(90) scale(119)">
<stop stop-color="#00DC7E"/>
<stop offset="1" stop-color="white" stop-opacity="0"/>
</radialGradient>
<radialGradient id="paint34_radial_9_70" cx="0" cy="0" r="1" gradientUnits="userSpaceOnUse" gradientTransform="translate(119 119) rotate(90) scale(119)">
<stop stop-color="#00DC7E"/>
<stop offset="1" stop-color="white" stop-opacity="0"/>
</radialGradient>
<radialGradient id="paint35_radial_9_70" cx="0" cy="0" r="1" gradientUnits="userSpaceOnUse" gradientTransform="translate(119 119) rotate(90) scale(119)">
<stop stop-color="#00DC7E"/>
<stop offset="1" stop-color="white" stop-opacity="0"/>
</radialGradient>
<radialGradient id="paint36_radial_9_70" cx="0" cy="0" r="1" gradientUnits="userSpaceOnUse" gradientTransform="translate(119 119) rotate(90) scale(119)">
<stop stop-color="#00DC7E"/>
<stop offset="1" stop-color="white" stop-opacity="0"/>
</radialGradient>
<radialGradient id="paint37_radial_9_70" cx="0" cy="0" r="1" gradientUnits="userSpaceOnUse" gradientTransform="translate(119 119) rotate(90) scale(119)">
<stop stop-color="#00DC7E"/>
<stop offset="1" stop-color="white" stop-opacity="0"/>
</radialGradient>
<radialGradient id="paint38_radial_9_70" cx="0" cy="0" r="1" gradientUnits="userSpaceOnUse" gradientTransform="translate(119 119) rotate(90) scale(119)">
<stop stop-color="#00DC7E"/>
<stop offset="1" stop-color="white" stop-opacity="0"/>
</radialGradient>
<radialGradient id="paint39_radial_9_70" cx="0" cy="0" r="1" gradientUnits="userSpaceOnUse" gradientTransform="translate(119 119) rotate(90) scale(119)">
<stop stop-color="#00DC7E"/>
<stop offset="1" stop-color="white" stop-opacity="0"/>
</radialGradient>
<radialGradient id="paint40_radial_9_70" cx="0" cy="0" r="1" gradientUnits="userSpaceOnUse" gradientTransform="translate(119 119) rotate(90) scale(119)">
<stop stop-color="#00DC7E"/>
<stop offset="1" stop-color="white" stop-opacity="0"/>
</radialGradient>
<radialGradient id="paint41_radial_9_70" cx="0" cy="0" r="1" gradientUnits="userSpaceOnUse" gradientTransform="translate(119 119) rotate(90) scale(119)">
<stop stop-color="#00DC7E"/>
<stop offset="1" stop-color="white" stop-opacity="0"/>
</radialGradient>
<radialGradient id="paint42_radial_9_70" cx="0" cy="0" r="1" gradientUnits="userSpaceOnUse" gradientTransform="translate(119 119) rotate(90) scale(119)">
<stop stop-color="#00DC7E"/>
<stop offset="1" stop-color="white" stop-opacity="0"/>
</radialGradient>
<radialGradient id="paint43_radial_9_70" cx="0" cy="0" r="1" gradientUnits="userSpaceOnUse" gradientTransform="translate(119 119) rotate(90) scale(119)">
<stop stop-color="#00DC7E"/>
<stop offset="1" stop-color="white" stop-opacity="0"/>
</radialGradient>
<radialGradient id="paint44_radial_9_70" cx="0" cy="0" r="1" gradientUnits="userSpaceOnUse" gradientTransform="translate(119 119) rotate(90) scale(119)">
<stop stop-color="#00DC7E"/>
<stop offset="1" stop-color="white" stop-opacity="0"/>
</radialGradient>
<radialGradient id="paint45_radial_9_70" cx="0" cy="0" r="1" gradientUnits="userSpaceOnUse" gradientTransform="translate(119 119) rotate(90) scale(119)">
<stop stop-color="#00DC7E"/>
<stop offset="1" stop-color="white" stop-opacity="0"/>
</radialGradient>
<radialGradient id="paint46_radial_9_70" cx="0" cy="0" r="1" gradientUnits="userSpaceOnUse" gradientTransform="translate(119 119) rotate(90) scale(119)">
<stop stop-color="#00DC7E"/>
<stop offset="1" stop-color="white" stop-opacity="0"/>
</radialGradient>
<radialGradient id="paint47_radial_9_70" cx="0" cy="0" r="1" gradientUnits="userSpaceOnUse" gradientTransform="translate(119 119) rotate(90) scale(119)">
<stop stop-color="#00DC7E"/>
<stop offset="1" stop-color="white" stop-opacity="0"/>
</radialGradient>
<radialGradient id="paint48_radial_9_70" cx="0" cy="0" r="1" gradientUnits="userSpaceOnUse" gradientTransform="translate(119 119) rotate(90) scale(119)">
<stop stop-color="#00DC7E"/>
<stop offset="1" stop-color="white" stop-opacity="0"/>
</radialGradient>
<radialGradient id="paint49_radial_9_70" cx="0" cy="0" r="1" gradientUnits="userSpaceOnUse" gradientTransform="translate(119 119) rotate(90) scale(119)">
<stop stop-color="#00DC7E"/>
<stop offset="1" stop-color="white" stop-opacity="0"/>
</radialGradient>
<radialGradient id="paint50_radial_9_70" cx="0" cy="0" r="1" gradientUnits="userSpaceOnUse" gradientTransform="translate(119 119) rotate(90) scale(119)">
<stop stop-color="#00DC7E"/>
<stop offset="1" stop-color="white" stop-opacity="0"/>
</radialGradient>
<radialGradient id="paint51_radial_9_70" cx="0" cy="0" r="1" gradientUnits="userSpaceOnUse" gradientTransform="translate(119 119) rotate(90) scale(119)">
<stop stop-color="#00DC7E"/>
<stop offset="1" stop-color="white" stop-opacity="0"/>
</radialGradient>
<radialGradient id="paint52_radial_9_70" cx="0" cy="0" r="1" gradientUnits="userSpaceOnUse" gradientTransform="translate(119 119) rotate(90) scale(119)">
<stop stop-color="#00DC7E"/>
<stop offset="1" stop-color="white" stop-opacity="0"/>
</radialGradient>
<radialGradient id="paint53_radial_9_70" cx="0" cy="0" r="1" gradientUnits="userSpaceOnUse" gradientTransform="translate(119 119) rotate(90) scale(119)">
<stop stop-color="#00DC7E"/>
<stop offset="1" stop-color="white" stop-opacity="0"/>
</radialGradient>
<radialGradient id="paint54_radial_9_70" cx="0" cy="0" r="1" gradientUnits="userSpaceOnUse" gradientTransform="translate(119 119) rotate(90) scale(119)">
<stop stop-color="#00DC7E"/>
<stop offset="1" stop-color="white" stop-opacity="0"/>
</radialGradient>
<radialGradient id="paint55_radial_9_70" cx="0" cy="0" r="1" gradientUnits="userSpaceOnUse" gradientTransform="translate(119 119) rotate(90) scale(119)">
<stop stop-color="#00DC7E"/>
<stop offset="1" stop-color="white" stop-opacity="0"/>
</radialGradient>
<radialGradient id="paint56_radial_9_70" cx="0" cy="0" r="1" gradientUnits="userSpaceOnUse" gradientTransform="translate(119 119) rotate(90) scale(119)">
<stop stop-color="#00DC7E"/>
<stop offset="1" stop-color="white" stop-opacity="0"/>
</radialGradient>
<radialGradient id="paint57_radial_9_70" cx="0" cy="0" r="1" gradientUnits="userSpaceOnUse" gradientTransform="translate(119 119) rotate(90) scale(119)">
<stop stop-color="#00DC7E"/>
<stop offset="1" stop-color="white" stop-opacity="0"/>
</radialGradient>
<radialGradient id="paint58_radial_9_70" cx="0" cy="0" r="1" gradientUnits="userSpaceOnUse" gradientTransform="translate(119 119) rotate(90) scale(119)">
<stop stop-color="#00DC7E"/>
<stop offset="1" stop-color="white" stop-opacity="0"/>
</radialGradient>
<radialGradient id="paint59_radial_9_70" cx="0" cy="0" r="1" gradientUnits="userSpaceOnUse" gradientTransform="translate(119 119) rotate(90) scale(119)">
<stop stop-color="#00DC7E"/>
<stop offset="1" stop-color="white" stop-opacity="0"/>
</radialGradient>
<radialGradient id="paint60_radial_9_70" cx="0" cy="0" r="1" gradientUnits="userSpaceOnUse" gradientTransform="translate(119 119) rotate(90) scale(119)">
<stop stop-color="#00DC7E"/>
<stop offset="1" stop-color="white" stop-opacity="0"/>
</radialGradient>
<radialGradient id="paint61_radial_9_70" cx="0" cy="0" r="1" gradientUnits="userSpaceOnUse" gradientTransform="translate(119 119) rotate(90) scale(119)">
<stop stop-color="#00DC7E"/>
<stop offset="1" stop-color="white" stop-opacity="0"/>
</radialGradient>
<radialGradient id="paint62_radial_9_70" cx="0" cy="0" r="1" gradientUnits="userSpaceOnUse" gradientTransform="translate(119 119) rotate(90) scale(119)">
<stop stop-color="#00DC7E"/>
<stop offset="1" stop-color="white" stop-opacity="0"/>
</radialGradient>
<radialGradient id="paint63_radial_9_70" cx="0" cy="0" r="1" gradientUnits="userSpaceOnUse" gradientTransform="translate(119 119) rotate(90) scale(119)">
<stop stop-color="#00DC7E"/>
<stop offset="1" stop-color="white" stop-opacity="0"/>
</radialGradient>
<radialGradient id="paint64_radial_9_70" cx="0" cy="0" r="1" gradientUnits="userSpaceOnUse" gradientTransform="translate(119 119) rotate(90) scale(119)">
<stop stop-color="#00DC7E"/>
<stop offset="1" stop-color="white" stop-opacity="0"/>
</radialGradient>
<radialGradient id="paint65_radial_9_70" cx="0" cy="0" r="1" gradientUnits="userSpaceOnUse" gradientTransform="translate(119 119) rotate(90) scale(119)">
<stop stop-color="#00DC7E"/>
<stop offset="1" stop-color="white" stop-opacity="0"/>
</radialGradient>
<radialGradient id="paint66_radial_9_70" cx="0" cy="0" r="1" gradientUnits="userSpaceOnUse" gradientTransform="translate(119 119) rotate(90) scale(119)">
<stop stop-color="#00DC7E"/>
<stop offset="1" stop-color="white" stop-opacity="0"/>
</radialGradient>
<radialGradient id="paint67_radial_9_70" cx="0" cy="0" r="1" gradientUnits="userSpaceOnUse" gradientTransform="translate(119 119) rotate(90) scale(119)">
<stop stop-color="#00DC7E"/>
<stop offset="1" stop-color="white" stop-opacity="0"/>
</radialGradient>
<radialGradient id="paint68_radial_9_70" cx="0" cy="0" r="1" gradientUnits="userSpaceOnUse" gradientTransform="translate(119 119) rotate(90) scale(119)">
<stop stop-color="#00DC7E"/>
<stop offset="1" stop-color="white" stop-opacity="0"/>
</radialGradient>
<radialGradient id="paint69_radial_9_70" cx="0" cy="0" r="1" gradientUnits="userSpaceOnUse" gradientTransform="translate(119 119) rotate(90) scale(119)">
<stop stop-color="#00DC7E"/>
<stop offset="1" stop-color="white" stop-opacity="0"/>
</radialGradient>
<radialGradient id="paint70_radial_9_70" cx="0" cy="0" r="1" gradientUnits="userSpaceOnUse" gradientTransform="translate(119 119) rotate(90) scale(119)">
<stop stop-color="#00DC7E"/>
<stop offset="1" stop-color="white" stop-opacity="0"/>
</radialGradient>
<radialGradient id="paint71_radial_9_70" cx="0" cy="0" r="1" gradientUnits="userSpaceOnUse" gradientTransform="translate(119 119) rotate(90) scale(119)">
<stop stop-color="#00DC7E"/>
<stop offset="1" stop-color="white" stop-opacity="0"/>
</radialGradient>
<radialGradient id="paint72_radial_9_70" cx="0" cy="0" r="1" gradientUnits="userSpaceOnUse" gradientTransform="translate(119 119) rotate(90) scale(119)">
<stop stop-color="#00DC7E"/>
<stop offset="1" stop-color="white" stop-opacity="0"/>
</radialGradient>
<radialGradient id="paint73_radial_9_70" cx="0" cy="0" r="1" gradientUnits="userSpaceOnUse" gradientTransform="translate(119 119) rotate(90) scale(119)">
<stop stop-color="#00DC7E"/>
<stop offset="1" stop-color="white" stop-opacity="0"/>
</radialGradient>
<radialGradient id="paint74_radial_9_70" cx="0" cy="0" r="1" gradientUnits="userSpaceOnUse" gradientTransform="translate(119 119) rotate(90) scale(119)">
<stop stop-color="#00DC7E"/>
<stop offset="1" stop-color="white" stop-opacity="0"/>
</radialGradient>
<radialGradient id="paint75_radial_9_70" cx="0" cy="0" r="1" gradientUnits="userSpaceOnUse" gradientTransform="translate(119 119) rotate(90) scale(119)">
<stop stop-color="#00DC7E"/>
<stop offset="1" stop-color="white" stop-opacity="0"/>
</radialGradient>
<radialGradient id="paint76_radial_9_70" cx="0" cy="0" r="1" gradientUnits="userSpaceOnUse" gradientTransform="translate(119 119) rotate(90) scale(119)">
<stop stop-color="#00DC7E"/>
<stop offset="1" stop-color="white" stop-opacity="0"/>
</radialGradient>
<radialGradient id="paint77_radial_9_70" cx="0" cy="0" r="1" gradientUnits="userSpaceOnUse" gradientTransform="translate(119 119) rotate(90) scale(119)">
<stop stop-color="#00DC7E"/>
<stop offset="1" stop-color="white" stop-opacity="0"/>
</radialGradient>
<radialGradient id="paint78_radial_9_70" cx="0" cy="0" r="1" gradientUnits="userSpaceOnUse" gradientTransform="translate(119 119) rotate(90) scale(119)">
<stop stop-color="#00DC7E"/>
<stop offset="1" stop-color="white" stop-opacity="0"/>
</radialGradient>
<radialGradient id="paint79_radial_9_70" cx="0" cy="0" r="1" gradientUnits="userSpaceOnUse" gradientTransform="translate(119 119) rotate(90) scale(119)">
<stop stop-color="#00DC7E"/>
<stop offset="1" stop-color="white" stop-opacity="0"/>
</radialGradient>
<radialGradient id="paint80_radial_9_70" cx="0" cy="0" r="1" gradientUnits="userSpaceOnUse" gradientTransform="translate(119 119) rotate(90) scale(119)">
<stop stop-color="#00DC7E"/>
<stop offset="1" stop-color="white" stop-opacity="0"/>
</radialGradient>
<radialGradient id="paint81_radial_9_70" cx="0" cy="0" r="1" gradientUnits="userSpaceOnUse" gradientTransform="translate(119 119) rotate(90) scale(119)">
<stop stop-color="#00DC7E"/>
<stop offset="1" stop-color="white" stop-opacity="0"/>
</radialGradient>
<radialGradient id="paint82_radial_9_70" cx="0" cy="0" r="1" gradientUnits="userSpaceOnUse" gradientTransform="translate(119 119) rotate(90) scale(119)">
<stop stop-color="#00DC7E"/>
<stop offset="1" stop-color="white" stop-opacity="0"/>
</radialGradient>
<radialGradient id="paint83_radial_9_70" cx="0" cy="0" r="1" gradientUnits="userSpaceOnUse" gradientTransform="translate(119 119) rotate(90) scale(119)">
<stop stop-color="#00DC7E"/>
<stop offset="1" stop-color="white" stop-opacity="0"/>
</radialGradient>
<radialGradient id="paint84_radial_9_70" cx="0" cy="0" r="1" gradientUnits="userSpaceOnUse" gradientTransform="translate(119 119) rotate(90) scale(119)">
<stop stop-color="#00DC7E"/>
<stop offset="1" stop-color="white" stop-opacity="0"/>
</radialGradient>
<radialGradient id="paint85_radial_9_70" cx="0" cy="0" r="1" gradientUnits="userSpaceOnUse" gradientTransform="translate(119 119) rotate(90) scale(119)">
<stop stop-color="#00DC7E"/>
<stop offset="1" stop-color="white" stop-opacity="0"/>
</radialGradient>
<radialGradient id="paint86_radial_9_70" cx="0" cy="0" r="1" gradientUnits="userSpaceOnUse" gradientTransform="translate(119 119) rotate(90) scale(119)">
<stop stop-color="#00DC7E"/>
<stop offset="1" stop-color="white" stop-opacity="0"/>
</radialGradient>
<radialGradient id="paint87_radial_9_70" cx="0" cy="0" r="1" gradientUnits="userSpaceOnUse" gradientTransform="translate(119 119) rotate(90) scale(119)">
<stop stop-color="#00DC7E"/>
<stop offset="1" stop-color="white" stop-opacity="0"/>
</radialGradient>
<radialGradient id="paint88_radial_9_70" cx="0" cy="0" r="1" gradientUnits="userSpaceOnUse" gradientTransform="translate(119 119) rotate(90) scale(119)">
<stop stop-color="#00DC7E"/>
<stop offset="1" stop-color="white" stop-opacity="0"/>
</radialGradient>
<radialGradient id="paint89_radial_9_70" cx="0" cy="0" r="1" gradientUnits="userSpaceOnUse" gradientTransform="translate(119 119) rotate(90) scale(119)">
<stop stop-color="#00DC7E"/>
<stop offset="1" stop-color="white" stop-opacity="0"/>
</radialGradient>
<radialGradient id="paint90_radial_9_70" cx="0" cy="0" r="1" gradientUnits="userSpaceOnUse" gradientTransform="translate(119 119) rotate(90) scale(119)">
<stop stop-color="#00DC7E"/>
<stop offset="1" stop-color="white" stop-opacity="0"/>
</radialGradient>
<radialGradient id="paint91_radial_9_70" cx="0" cy="0" r="1" gradientUnits="userSpaceOnUse" gradientTransform="translate(119 119) rotate(90) scale(119)">
<stop stop-color="#00DC7E"/>
<stop offset="1" stop-color="white" stop-opacity="0"/>
</radialGradient>
<radialGradient id="paint92_radial_9_70" cx="0" cy="0" r="1" gradientUnits="userSpaceOnUse" gradientTransform="translate(119 119) rotate(90) scale(119)">
<stop stop-color="#00DC7E"/>
<stop offset="1" stop-color="white" stop-opacity="0"/>
</radialGradient>
<radialGradient id="paint93_radial_9_70" cx="0" cy="0" r="1" gradientUnits="userSpaceOnUse" gradientTransform="translate(119 119) rotate(90) scale(119)">
<stop stop-color="#00DC7E"/>
<stop offset="1" stop-color="white" stop-opacity="0"/>
</radialGradient>
<radialGradient id="paint94_radial_9_70" cx="0" cy="0" r="1" gradientUnits="userSpaceOnUse" gradientTransform="translate(119 119) rotate(90) scale(119)">
<stop stop-color="#00DC7E"/>
<stop offset="1" stop-color="white" stop-opacity="0"/>
</radialGradient>
<radialGradient id="paint95_radial_9_70" cx="0" cy="0" r="1" gradientUnits="userSpaceOnUse" gradientTransform="translate(119 119) rotate(90) scale(119)">
<stop stop-color="#00DC7E"/>
<stop offset="1" stop-color="white" stop-opacity="0"/>
</radialGradient>
<radialGradient id="paint96_radial_9_70" cx="0" cy="0" r="1" gradientUnits="userSpaceOnUse" gradientTransform="translate(119 119) rotate(90) scale(119)">
<stop stop-color="#00DC7E"/>
<stop offset="1" stop-color="white" stop-opacity="0"/>
</radialGradient>
<radialGradient id="paint97_radial_9_70" cx="0" cy="0" r="1" gradientUnits="userSpaceOnUse" gradientTransform="translate(119 119) rotate(90) scale(119)">
<stop stop-color="#00DC7E"/>
<stop offset="1" stop-color="white" stop-opacity="0"/>
</radialGradient>
<radialGradient id="paint98_radial_9_70" cx="0" cy="0" r="1" gradientUnits="userSpaceOnUse" gradientTransform="translate(119 119) rotate(90) scale(119)">
<stop stop-color="#00DC7E"/>
<stop offset="1" stop-color="white" stop-opacity="0"/>
</radialGradient>
<radialGradient id="paint99_radial_9_70" cx="0" cy="0" r="1" gradientUnits="userSpaceOnUse" gradientTransform="translate(119 119) rotate(90) scale(119)">
<stop stop-color="#00DC7E"/>
<stop offset="1" stop-color="white" stop-opacity="0"/>
</radialGradient>
</defs>
</svg>
